<svg xmlns="http://www.w3.org/2000/svg" xmlns:xlink="http://www.w3.org/1999/xlink" version="1.2" viewBox="0 0 126.7 110.6"><defs><symbol id="a" overflow="visible"><path d="M8.6-2.9c0 .9-.3 1.6-.8 2.1a3 3 0 01-2.2.8H1v-15.4h4.7c1 0 1.7.3 2.2.8.5.5.8 1.2.8 2.1zm-2.3-.4V-12c0-.9-.5-1.3-1.4-1.3H3.2V-2H5c1 0 1.4-.4 1.4-1.3zm0 0"/></symbol><symbol id="b" overflow="visible"><path d="M8.7-1.4c0 1-.5 1.4-1.4 1.4h-5C1.3 0 .9-.5.9-1.4V-14c0-1 .5-1.4 1.4-1.4h5c1 0 1.4.5 1.4 1.4zM6.4-2v-11.4H3.2V-2zm0 0"/></symbol><symbol id="c" overflow="visible"><path d="M8.7 0h-2L3-9.7l.2 1.1V0H.9v-15.4h2l3.7 9.5A5 5 0 016.5-7v-8.4h2.2zm0 0"/></symbol><symbol id="d" overflow="visible"><path d="M7.3 0H1v-15.4h6.3v2h-4v4.5h3.5v2H3.2V-2h4.1zm0 0"/></symbol><symbol id="e" overflow="visible"><path d="M7 0H1v-15.4h2.2V-2H7zm0 0"/></symbol><symbol id="f" overflow="visible"><path d="M8.6-15.4L5.6 0H3.3L.4-15.4h2.3L4.4-4.8v1.3l.1-1.3 1.8-10.6zm0 0"/></symbol><symbol id="g" overflow="visible"><path d="M4.1-2.7H2.7V0H1.5v-2.7H.1v-.5h4zm0 0"/></symbol><symbol id="h" overflow="visible"><path d="M4 0H.4v-3.2h3.4v.5H1.7v.9h2v.4h-2v1H4zm0 0"/></symbol><symbol id="j" overflow="visible"><path d="M3.8 0H.5v-3.2h1.2v2.8h2zm0 0"/></symbol><symbol id="k" overflow="visible"><path d="M4.7-.3c0 .2-.3.3-.8.3H1.2C.8 0 .5 0 .5-.3v-2.6c0-.2.3-.3.7-.3H4c.5 0 .8.1.8.3zM3.4-.4v-2.4H1.7v2.4zm0 0"/></symbol></defs><path fill="#99d9a1" fill-rule="evenodd" d="M118.3 83c-48 39.8-126 8.4-109.5-68.4C-31.8 97 80.2 143.4 118.3 83"/><path fill="none" stroke="#99d9a1" stroke-miterlimit="2.6" stroke-width=".13" d="M118.3 83c-48 39.8-126 8.4-109.5-68.4C-31.8 97 80.2 143.4 118.3 83zm0 0"/><path fill="#54a366" fill-rule="evenodd" d="M111.7 0c24.4 46.7-15.4 105.7-76 78.4 61.1 48.2 119.1-36.3 76-78.4"/><path fill="none" stroke="#54a366" stroke-miterlimit="2.6" stroke-width="1.3" d="M1115.4-3210c-467-244.8-1058.5 152.2-786.2 759.5-481-612.3 365.6-1192.2 786.2-759.5zm0 0" transform="matrix(.00015 -.09985 -.09985 -.00015 -209 111)"/><g fill="#f37014" transform="translate(-209 -232)"><use width="100%" height="100%" x="268.9" y="255.1" xlink:href="#a"/><use width="100%" height="100%" x="278.3" y="255.1" xlink:href="#b"/><use width="100%" height="100%" x="287.9" y="255.1" xlink:href="#c"/><use width="100%" height="100%" x="297.6" y="255.1" xlink:href="#a"/><use width="100%" height="100%" x="307" y="255.1" xlink:href="#d"/></g><use width="100%" height="100%" x="268.9" y="278.5" fill="#f37014" transform="translate(-209 -232)" xlink:href="#e"/><use width="100%" height="100%" x="277.5" y="278.5" fill="#f37014" transform="translate(-209 -232)" xlink:href="#e"/><use width="100%" height="100%" x="286.1" y="278.5" fill="#f37014" transform="translate(-209 -232)" xlink:href="#d"/><use width="100%" height="100%" x="295.2" y="278.5" fill="#f37014" transform="translate(-209 -232)" xlink:href="#f"/><use width="100%" height="100%" x="305.4" y="278.5" fill="#f37014" transform="translate(-209 -232)" xlink:href="#b"/><g fill="#f37014" transform="translate(-209 -232)"><use width="100%" height="100%" x="281.9" y="260.7" xlink:href="#g"/><use width="100%" height="100%" x="286.1" y="260.7" xlink:href="#h"/><use width="100%" height="100%" x="290.4" y="260.7" xlink:href="#i"/><use width="100%" height="100%" x="292.7" y="260.7" xlink:href="#j"/><use width="100%" height="100%" x="296.6" y="260.7" xlink:href="#k"/></g></svg>